<svg width="512" height="512" viewBox="0 0 512 512" version="1.1" xmlns="http://www.w3.org/2000/svg">
  <path fill="#1ED760" d="M256 0C114.6 0 0 114.6 0 256s114.6 256 256 256 256-114.6 256-256S397.4 0 256 0zm117.2 369.3c-4.6 7.6-14.5 9.9-22 5.3-60.8-37.1-137.4-45.4-227.6-24.8-8.6 2-17.4-3.5-19.4-12.1s3.5-17.4 12.1-19.4c100.1-22.9 184.4-13.3 251.6 27.5 7.6 4.5 10 14.5 5.3 22zm31.2-69.6c-5.8 9.4-18 12.3-27.4 6.5-69.6-42.8-175.7-55.2-258-23.7-10.6 3.1-21.7-3-24.8-13.6-3.1-10.6 3-21.7 13.6-24.8 94.1-36 211.3-21.9 291 32 9.4 5.8 12.3 18 6.5 27.4l.1-.1zm1.7-72.2C318 174.5 163.5 168.3 73.8 195.6c-13.3 4-27.7-3.6-31.7-16.9-4-13.3 3.6-27.7 16.9-31.7 103-31.2 273-24.1 374.2 36 12 7.2 16 22.8 8.8 34.8s-22.8 16-34.8 8.8l-.1.1z"/>
</svg>
